<svg width="336" height="236" viewBox="0 0 336 236" fill="none" xmlns="http://www.w3.org/2000/svg">
<rect width="336" height="236" fill="white"/>
<g clip-path="url(#clip0_201_5)">
<path d="M234.958 93.9513H230.614L230.843 77.9808C230.815 77.0475 230.456 76.1545 229.829 75.4627L192.513 34.6323C192.214 34.2898 191.847 34.0125 191.435 33.8177C191.024 33.6229 190.577 33.5148 190.122 33.5H112.044C110.293 33.5281 108.622 34.2343 107.382 35.47C106.141 36.7056 105.429 38.3743 105.394 40.1248V93.9513H101.042C98.6339 93.9513 96.3101 94.9484 94.6201 96.7229C92.8958 98.5264 91.9386 100.929 91.9499 103.424V152.687C91.9499 157.909 96.0228 162.151 101.042 162.151H105.394V195.867C105.427 197.622 106.141 199.295 107.385 200.533C108.629 201.771 110.306 202.476 112.061 202.5H224.26C227.767 202.5 230.851 199.526 230.851 195.875V162.16H234.966C239.985 162.16 244.058 157.909 244.058 152.679V103.415C244.058 100.914 243.104 98.4974 241.397 96.7229C240.569 95.8514 239.573 95.1566 238.469 94.6803C237.365 94.204 236.177 93.956 234.975 93.9513H234.958ZM116.877 45.1441H175.656V83.8197C175.652 84.6906 175.985 85.5291 176.585 86.1604C176.876 86.4663 177.226 86.7101 177.614 86.8771C178.002 87.0442 178.419 87.1309 178.841 87.1321H219.055V93.9513H116.877V45.1441ZM116.877 190.856V162.151H219.055V190.856H116.877ZM187.359 46.344L190.612 50.0113L212.413 74.1192L213.621 75.581H191.339C189.649 75.581 188.593 75.3022 188.145 74.736C187.697 74.1868 187.435 73.2995 187.359 72.0911V46.344ZM108.85 153.76V103.06H125.057C131.192 103.06 135.197 103.314 137.056 103.821C139.929 104.581 142.329 106.238 144.264 108.789C146.19 111.333 147.162 114.62 147.162 118.659C147.162 121.769 146.605 124.388 145.489 126.518C144.374 128.63 142.954 130.295 141.239 131.503C139.671 132.648 137.889 133.467 136 133.911C133.592 134.393 130.102 134.638 125.53 134.638H118.948V153.76H108.85ZM118.948 111.637V126.027H124.474C128.454 126.027 131.116 125.757 132.459 125.233C133.758 124.743 134.87 123.858 135.64 122.704C136.41 121.549 136.799 120.182 136.752 118.794C136.813 117.125 136.24 115.494 135.146 114.231C134.091 113.04 132.66 112.247 131.09 111.984C129.89 111.755 127.465 111.646 123.823 111.646H118.948V111.637ZM153.086 103.06H171.54C175.706 103.06 178.875 103.381 181.064 104.032C183.996 104.902 186.505 106.466 188.601 108.697C190.688 110.936 192.285 113.674 193.375 116.91C194.474 120.155 195.015 124.143 195.015 128.892C195.015 133.066 194.508 136.666 193.477 139.683C192.226 143.375 190.435 146.358 188.119 148.64C186.37 150.372 184.004 151.724 181.021 152.696C178.799 153.405 175.816 153.76 172.09 153.76H153.086V103.06ZM163.183 111.637V145.217H170.721C173.543 145.217 175.58 145.057 176.83 144.736C178.469 144.313 179.83 143.62 180.903 142.623C181.985 141.635 182.872 140.004 183.548 137.731C184.232 135.458 184.57 132.365 184.57 128.444C184.57 124.523 184.232 121.515 183.556 119.42C183.02 117.571 182.032 115.884 180.683 114.51C179.379 113.293 177.761 112.465 176.011 112.119C174.599 111.798 171.836 111.637 167.73 111.637H163.183ZM201.318 153.76V103.06H235.6V111.637H211.416V123.636H232.288V132.213H211.416V153.76H201.318Z" fill="#D90707"/>
</g>
<defs>
<clipPath id="clip0_201_5">
<rect width="169" height="169" fill="white" transform="translate(83.5 33.5)"/>
</clipPath>
</defs>
</svg>
