<svg width="336" height="236" viewBox="0 0 336 236" fill="none" xmlns="http://www.w3.org/2000/svg">
<rect width="336" height="236" fill="white"/>
<path d="M224.667 95.2857H179.333V49.8571H111.333V186.143H224.667V95.2857ZM219.975 83.9286L190.667 54.559V83.9286H219.975ZM105.667 38.5H190.667L236 83.9286V191.821C236 193.327 235.403 194.772 234.34 195.837C233.278 196.902 231.836 197.5 230.333 197.5H105.667C104.164 197.5 102.722 196.902 101.66 195.837C100.597 194.772 100 193.327 100 191.821V44.1786C100 42.6725 100.597 41.2282 101.66 40.1632C102.722 39.0983 104.164 38.5 105.667 38.5ZM134 118H202V129.357H134V118ZM134 83.9286H162.333V95.2857H134V83.9286ZM134 152.071H202V163.429H134V152.071Z" fill="#8B9292"/>
</svg>
