<svg width="336" height="236" viewBox="0 0 336 236" fill="none" xmlns="http://www.w3.org/2000/svg">
<rect width="336" height="236" fill="white"/>
<path d="M183.25 41.75H122.25C118.205 41.75 114.327 43.3567 111.467 46.2166C108.607 49.0766 107 52.9554 107 57V179C107 187.464 113.786 194.25 122.25 194.25H213.75C222.214 194.25 229 187.464 229 179V87.5L183.25 41.75ZM213.75 179H122.25V57H175.625V95.125H213.75V179ZM208.794 102.75L192.781 171.375H182.106L168.381 119.601L154.656 171.375H143.981L127.206 102.75H138.644L149.319 154.676L163.044 102.75H172.956L186.681 154.676L197.356 102.75H208.794Z" fill="#107CE1"/>
</svg>
