<svg width="336" height="236" viewBox="0 0 336 236" fill="none" xmlns="http://www.w3.org/2000/svg">
<rect width="336" height="236" fill="white"/>
<path d="M178.933 118L204.444 154.4H182.578L168 133.597L153.422 154.4H131.555L157.067 118L131.555 81.6H153.422L168 102.403L182.578 81.6H195.333V45.2H104.222V190.8H231.778V81.6H204.444L178.933 118ZM86 36.0272C86 31.0404 90.0727 27 95.0929 27H204.444L250 72.5V199.827C250.009 201.023 249.783 202.209 249.333 203.317C248.884 204.426 248.22 205.435 247.38 206.286C246.539 207.138 245.539 207.817 244.436 208.282C243.334 208.748 242.15 208.992 240.952 209H95.0473C92.6545 208.983 90.3644 208.027 88.6715 206.338C86.9787 204.649 86.0191 202.363 86 199.973V36.0272Z" fill="#277C4E"/>
</svg>
